<svg width="121" height="121" viewBox="0 0 121 121" fill="none" xmlns="http://www.w3.org/2000/svg">
<path d="M0 121L10.406 89.7841C5.12581 80.9031 2.08621 70.5388 2.08621 59.4569C2.08621 26.62 28.7062 0 61.5431 0C94.38 0 121 26.62 121 59.4569C121 92.2938 94.38 118.914 61.5431 118.914C51.5523 118.914 42.1435 116.437 33.88 112.086L0 121Z" fill="#D9B99B"/>
<path d="M97.4418 81.3819C94.6964 76.1935 84.572 70.2603 84.572 70.2603C82.2813 68.9544 79.5171 68.8083 78.2112 71.1366C78.2112 71.1366 74.9212 75.0816 74.0846 75.649C70.2627 78.238 66.7224 78.1379 63.1487 74.5642L54.8436 66.259L46.5384 57.9538C42.9647 54.3801 42.8646 50.8398 45.4535 47.0179C46.021 46.1813 49.966 42.8914 49.966 42.8914C52.2942 41.5833 52.1482 38.8212 50.8422 36.5305C50.8422 36.5305 44.909 26.4062 39.7206 23.6607C37.5134 22.4925 34.8035 22.9014 33.0385 24.6663L29.371 28.3338C17.7362 39.9686 23.4649 53.1034 35.0997 64.7382L45.7331 75.3716L56.3665 86.0049C68.0013 97.6397 81.136 103.368 92.7708 91.7337L96.4383 88.0661C98.2033 86.297 98.6101 83.587 97.4418 81.3819Z" fill="#FFF7ED"/>
</svg>
